<svg xmlns="http://www.w3.org/2000/svg" viewBox="0 0 186.66 180.81"><defs><style>.cls-1{fill:#fff;}</style></defs><title>アセット 3</title><g id="レイヤー_2" data-name="レイヤー 2"><g id="レイヤー_1-2" data-name="レイヤー 1"><path class="cls-1" d="M186.65,94.53a93.34,93.34,0,0,1-60,86,3.88,3.88,0,0,1-5.28-3.62v-27.6a24,24,0,0,0-5.3-15.44,1.67,1.67,0,0,1,.73-2.61c19.23-7,32.57-22.42,32.57-40.28a37.92,37.92,0,0,0-9.4-24.59C139.73,60,139,46.5,136,39a2.42,2.42,0,0,0-2.53-1.5,43.9,43.9,0,0,0-24,11.09,70.48,70.48,0,0,0-32.34,0,43.9,43.9,0,0,0-24-11.09A2.42,2.42,0,0,0,50.62,39c-2.95,7.55-3.69,21-3.89,27.46A37.92,37.92,0,0,0,37.33,91c0,17.86,13.34,33.26,32.57,40.28a1.67,1.67,0,0,1,.73,2.61,23.77,23.77,0,0,0-5.23,13.38,2.2,2.2,0,0,1-2.18,2.06H54.33s-3,0-6-4-6-14-20-14c0,0-2,1,1,3s9,9,10,13,5,14,15,14h8.8a2.19,2.19,0,0,1,2.2,2.2v13.4a3.88,3.88,0,0,1-5.28,3.62A93.34,93.34,0,0,1,94.68,0C145.91.73,187.3,43.29,186.65,94.53Z"/></g></g></svg>